# xmcd
#
# Track frame offsets:
#	150
#	13541
#	24645
#	33136
#	46668
#	60031
#	70985
#	84646
#	96065
#	105662
#	116118
#	127741
#
# Disc length: 1858 seconds
#
# Revision: 1
# Processed by: cddbd v1.5.2PL0 Copyright (c) Steve Scherf et al.
# Submitted via: EasyCDDAExtractor 8.2.3.1
#
DISCID=8707400c
DTITLE=Jake Hooker - The Outsider
DYEAR=2007
DGENRE=Country
TTITLE0=The Outsider
TTITLE1=Here I Go Again
TTITLE2=I'm Gonna Act Right
TTITLE3=Honky Tonk Stardust Cowboy
TTITLE4=I Lie
TTITLE5=How Can I Get You Out Of My Heart
TTITLE6=Bury The Bottle With Me
TTITLE7=These Two Eyes
TTITLE8=Put Yourself In My Place
TTITLE9=She's Just You Made Over
TTITLE10=You've Slipped My Mind
TTITLE11=When All I Need Is You
EXTD=
EXTT0=
EXTT1=
EXTT2=
EXTT3=
EXTT4=
EXTT5=
EXTT6=
EXTT7=
EXTT8=
EXTT9=
EXTT10=
EXTT11=
PLAYORDER=
